<mxfile host="app.diagrams.net" agent="Mozilla/5.0 (Windows NT 10.0; Win64; x64) AppleWebKit/537.36 (KHTML, like Gecko) Chrome/131.0.0.0 Safari/537.36" version="24.8.4">
  <diagram name="Page-1" id="rfECY6xyQuvbNuc_ZOv_">
    <mxGraphModel dx="1050" dy="603" grid="1" gridSize="10" guides="1" tooltips="1" connect="1" arrows="1" fold="1" page="1" pageScale="1" pageWidth="850" pageHeight="1100" math="0" shadow="0">
      <root>
        <mxCell id="0" />
        <mxCell id="1" parent="0" />
        <mxCell id="tIcBD_fAVBuRJj0tbVpx-3" value="" style="edgeStyle=orthogonalEdgeStyle;rounded=0;orthogonalLoop=1;jettySize=auto;html=1;" edge="1" parent="1" source="tIcBD_fAVBuRJj0tbVpx-1" target="tIcBD_fAVBuRJj0tbVpx-2">
          <mxGeometry relative="1" as="geometry" />
        </mxCell>
        <mxCell id="tIcBD_fAVBuRJj0tbVpx-1" value="Initialize frontend app&lt;div&gt;&lt;br&gt;&lt;/div&gt;" style="rounded=1;whiteSpace=wrap;html=1;" vertex="1" parent="1">
          <mxGeometry x="80" y="80" width="120" height="60" as="geometry" />
        </mxCell>
        <mxCell id="tIcBD_fAVBuRJj0tbVpx-5" value="" style="edgeStyle=orthogonalEdgeStyle;rounded=0;orthogonalLoop=1;jettySize=auto;html=1;" edge="1" parent="1" source="tIcBD_fAVBuRJj0tbVpx-2">
          <mxGeometry relative="1" as="geometry">
            <mxPoint x="480" y="110" as="targetPoint" />
          </mxGeometry>
        </mxCell>
        <mxCell id="tIcBD_fAVBuRJj0tbVpx-2" value="Connect to the Google Client" style="whiteSpace=wrap;html=1;rounded=1;" vertex="1" parent="1">
          <mxGeometry x="280" y="80" width="120" height="60" as="geometry" />
        </mxCell>
        <mxCell id="tIcBD_fAVBuRJj0tbVpx-18" style="edgeStyle=orthogonalEdgeStyle;rounded=0;orthogonalLoop=1;jettySize=auto;html=1;" edge="1" parent="1" source="tIcBD_fAVBuRJj0tbVpx-6" target="tIcBD_fAVBuRJj0tbVpx-19">
          <mxGeometry relative="1" as="geometry">
            <mxPoint x="540" y="200" as="targetPoint" />
            <Array as="points">
              <mxPoint x="520" y="170" />
              <mxPoint x="420" y="170" />
            </Array>
          </mxGeometry>
        </mxCell>
        <mxCell id="tIcBD_fAVBuRJj0tbVpx-20" style="edgeStyle=orthogonalEdgeStyle;rounded=0;orthogonalLoop=1;jettySize=auto;html=1;exitX=0.5;exitY=0.88;exitDx=0;exitDy=0;exitPerimeter=0;" edge="1" parent="1" source="tIcBD_fAVBuRJj0tbVpx-6">
          <mxGeometry relative="1" as="geometry">
            <mxPoint x="600" y="210" as="targetPoint" />
            <Array as="points">
              <mxPoint x="540" y="185" />
              <mxPoint x="601" y="185" />
            </Array>
          </mxGeometry>
        </mxCell>
        <mxCell id="tIcBD_fAVBuRJj0tbVpx-6" value="Input modalities" style="strokeWidth=2;html=1;shape=mxgraph.flowchart.multi-document;whiteSpace=wrap;" vertex="1" parent="1">
          <mxGeometry x="480" y="80" width="120" height="70" as="geometry" />
        </mxCell>
        <mxCell id="tIcBD_fAVBuRJj0tbVpx-12" style="edgeStyle=orthogonalEdgeStyle;rounded=0;orthogonalLoop=1;jettySize=auto;html=1;exitX=0.5;exitY=0;exitDx=0;exitDy=0;exitPerimeter=0;" edge="1" parent="1" source="tIcBD_fAVBuRJj0tbVpx-7">
          <mxGeometry relative="1" as="geometry">
            <mxPoint x="660" y="60" as="targetPoint" />
          </mxGeometry>
        </mxCell>
        <mxCell id="tIcBD_fAVBuRJj0tbVpx-13" style="edgeStyle=orthogonalEdgeStyle;rounded=0;orthogonalLoop=1;jettySize=auto;html=1;exitX=0.5;exitY=1;exitDx=0;exitDy=0;exitPerimeter=0;" edge="1" parent="1" source="tIcBD_fAVBuRJj0tbVpx-7">
          <mxGeometry relative="1" as="geometry">
            <mxPoint x="660" y="160" as="targetPoint" />
          </mxGeometry>
        </mxCell>
        <mxCell id="tIcBD_fAVBuRJj0tbVpx-7" value="" style="strokeWidth=2;html=1;shape=mxgraph.flowchart.annotation_2;align=left;labelPosition=right;pointerEvents=1;" vertex="1" parent="1">
          <mxGeometry x="600" y="60" width="50" height="100" as="geometry" />
        </mxCell>
        <mxCell id="tIcBD_fAVBuRJj0tbVpx-14" value="" style="endArrow=classic;html=1;rounded=0;" edge="1" parent="1">
          <mxGeometry width="50" height="50" relative="1" as="geometry">
            <mxPoint x="620" y="109.5" as="sourcePoint" />
            <mxPoint x="660" y="110" as="targetPoint" />
          </mxGeometry>
        </mxCell>
        <mxCell id="tIcBD_fAVBuRJj0tbVpx-15" value="Video + Audio" style="text;html=1;align=center;verticalAlign=middle;resizable=0;points=[];autosize=1;strokeColor=none;fillColor=none;" vertex="1" parent="1">
          <mxGeometry x="660" y="40" width="100" height="30" as="geometry" />
        </mxCell>
        <mxCell id="tIcBD_fAVBuRJj0tbVpx-16" value="Video + Text&lt;div&gt;&lt;br&gt;&lt;/div&gt;" style="text;html=1;align=center;verticalAlign=middle;resizable=0;points=[];autosize=1;strokeColor=none;fillColor=none;" vertex="1" parent="1">
          <mxGeometry x="660" y="100" width="90" height="40" as="geometry" />
        </mxCell>
        <mxCell id="tIcBD_fAVBuRJj0tbVpx-17" value="Screen Share + Audio" style="text;html=1;align=center;verticalAlign=middle;resizable=0;points=[];autosize=1;strokeColor=none;fillColor=none;" vertex="1" parent="1">
          <mxGeometry x="660" y="150" width="140" height="30" as="geometry" />
        </mxCell>
        <mxCell id="tIcBD_fAVBuRJj0tbVpx-47" value="" style="edgeStyle=orthogonalEdgeStyle;rounded=0;orthogonalLoop=1;jettySize=auto;html=1;" edge="1" parent="1" source="tIcBD_fAVBuRJj0tbVpx-19" target="tIcBD_fAVBuRJj0tbVpx-46">
          <mxGeometry relative="1" as="geometry" />
        </mxCell>
        <mxCell id="tIcBD_fAVBuRJj0tbVpx-19" value="Upload Video&amp;nbsp;&lt;br&gt;(for 1,2 Input modalities)" style="rounded=1;whiteSpace=wrap;html=1;" vertex="1" parent="1">
          <mxGeometry x="360" y="190" width="120" height="60" as="geometry" />
        </mxCell>
        <mxCell id="tIcBD_fAVBuRJj0tbVpx-26" value="" style="edgeStyle=orthogonalEdgeStyle;rounded=0;orthogonalLoop=1;jettySize=auto;html=1;" edge="1" parent="1" source="tIcBD_fAVBuRJj0tbVpx-21" target="tIcBD_fAVBuRJj0tbVpx-25">
          <mxGeometry relative="1" as="geometry" />
        </mxCell>
        <mxCell id="tIcBD_fAVBuRJj0tbVpx-21" value="Screen Share Logic Implementation&lt;div&gt;&lt;br&gt;&lt;/div&gt;" style="rounded=1;whiteSpace=wrap;html=1;" vertex="1" parent="1">
          <mxGeometry x="540" y="210" width="120" height="60" as="geometry" />
        </mxCell>
        <mxCell id="tIcBD_fAVBuRJj0tbVpx-28" value="" style="edgeStyle=orthogonalEdgeStyle;rounded=0;orthogonalLoop=1;jettySize=auto;html=1;" edge="1" parent="1" source="tIcBD_fAVBuRJj0tbVpx-25" target="tIcBD_fAVBuRJj0tbVpx-27">
          <mxGeometry relative="1" as="geometry" />
        </mxCell>
        <mxCell id="tIcBD_fAVBuRJj0tbVpx-31" value="" style="edgeStyle=orthogonalEdgeStyle;rounded=0;orthogonalLoop=1;jettySize=auto;html=1;" edge="1" parent="1" source="tIcBD_fAVBuRJj0tbVpx-25" target="tIcBD_fAVBuRJj0tbVpx-30">
          <mxGeometry relative="1" as="geometry" />
        </mxCell>
        <mxCell id="tIcBD_fAVBuRJj0tbVpx-25" value="Screen Shared,&lt;div&gt;Has audio ended?&lt;/div&gt;" style="strokeWidth=2;html=1;shape=mxgraph.flowchart.decision;whiteSpace=wrap;" vertex="1" parent="1">
          <mxGeometry x="550" y="290" width="150" height="110" as="geometry" />
        </mxCell>
        <mxCell id="tIcBD_fAVBuRJj0tbVpx-27" value="Keep running loop&lt;div&gt;&lt;br&gt;&lt;/div&gt;" style="whiteSpace=wrap;html=1;strokeWidth=2;" vertex="1" parent="1">
          <mxGeometry x="720" y="315" width="120" height="60" as="geometry" />
        </mxCell>
        <mxCell id="tIcBD_fAVBuRJj0tbVpx-29" value="No" style="text;html=1;align=center;verticalAlign=middle;resizable=0;points=[];autosize=1;strokeColor=none;fillColor=none;" vertex="1" parent="1">
          <mxGeometry x="680" y="308" width="40" height="30" as="geometry" />
        </mxCell>
        <mxCell id="tIcBD_fAVBuRJj0tbVpx-40" value="" style="edgeStyle=orthogonalEdgeStyle;rounded=0;orthogonalLoop=1;jettySize=auto;html=1;" edge="1" parent="1" source="tIcBD_fAVBuRJj0tbVpx-30" target="tIcBD_fAVBuRJj0tbVpx-39">
          <mxGeometry relative="1" as="geometry" />
        </mxCell>
        <mxCell id="tIcBD_fAVBuRJj0tbVpx-30" value="Stop and capture video, send video snippet to Model" style="whiteSpace=wrap;html=1;strokeWidth=2;" vertex="1" parent="1">
          <mxGeometry x="565" y="428" width="120" height="60" as="geometry" />
        </mxCell>
        <mxCell id="tIcBD_fAVBuRJj0tbVpx-32" value="Yes" style="text;html=1;align=center;verticalAlign=middle;resizable=0;points=[];autosize=1;strokeColor=none;fillColor=none;" vertex="1" parent="1">
          <mxGeometry x="580" y="398" width="40" height="30" as="geometry" />
        </mxCell>
        <mxCell id="tIcBD_fAVBuRJj0tbVpx-45" value="" style="edgeStyle=orthogonalEdgeStyle;rounded=0;orthogonalLoop=1;jettySize=auto;html=1;" edge="1" parent="1" source="tIcBD_fAVBuRJj0tbVpx-33" target="tIcBD_fAVBuRJj0tbVpx-35">
          <mxGeometry relative="1" as="geometry" />
        </mxCell>
        <mxCell id="tIcBD_fAVBuRJj0tbVpx-33" value="Send request to client&lt;br&gt;(Vid + text prompt)" style="whiteSpace=wrap;html=1;strokeWidth=2;" vertex="1" parent="1">
          <mxGeometry x="420" y="510" width="120" height="60" as="geometry" />
        </mxCell>
        <mxCell id="tIcBD_fAVBuRJj0tbVpx-44" value="" style="edgeStyle=orthogonalEdgeStyle;rounded=0;orthogonalLoop=1;jettySize=auto;html=1;" edge="1" parent="1" source="tIcBD_fAVBuRJj0tbVpx-35" target="tIcBD_fAVBuRJj0tbVpx-43">
          <mxGeometry relative="1" as="geometry" />
        </mxCell>
        <mxCell id="tIcBD_fAVBuRJj0tbVpx-35" value="Get Audio response" style="whiteSpace=wrap;html=1;strokeWidth=2;" vertex="1" parent="1">
          <mxGeometry x="270" y="510" width="120" height="60" as="geometry" />
        </mxCell>
        <mxCell id="tIcBD_fAVBuRJj0tbVpx-42" value="" style="edgeStyle=orthogonalEdgeStyle;rounded=0;orthogonalLoop=1;jettySize=auto;html=1;" edge="1" parent="1" source="tIcBD_fAVBuRJj0tbVpx-39" target="tIcBD_fAVBuRJj0tbVpx-33">
          <mxGeometry relative="1" as="geometry" />
        </mxCell>
        <mxCell id="tIcBD_fAVBuRJj0tbVpx-39" value="Convert Audio to prompt" style="rounded=0;whiteSpace=wrap;html=1;" vertex="1" parent="1">
          <mxGeometry x="565" y="510" width="120" height="60" as="geometry" />
        </mxCell>
        <mxCell id="tIcBD_fAVBuRJj0tbVpx-43" value="Update Prompt + Response Audio (Autoplay)" style="whiteSpace=wrap;html=1;strokeWidth=2;" vertex="1" parent="1">
          <mxGeometry x="270" y="428" width="120" height="60" as="geometry" />
        </mxCell>
        <mxCell id="tIcBD_fAVBuRJj0tbVpx-49" value="" style="edgeStyle=orthogonalEdgeStyle;rounded=0;orthogonalLoop=1;jettySize=auto;html=1;" edge="1" parent="1" source="tIcBD_fAVBuRJj0tbVpx-46" target="tIcBD_fAVBuRJj0tbVpx-48">
          <mxGeometry relative="1" as="geometry" />
        </mxCell>
        <mxCell id="tIcBD_fAVBuRJj0tbVpx-46" value="Prompt + Video -&amp;gt; Request to Client&lt;div&gt;&lt;br&gt;&lt;/div&gt;" style="whiteSpace=wrap;html=1;rounded=1;" vertex="1" parent="1">
          <mxGeometry x="200" y="190" width="120" height="60" as="geometry" />
        </mxCell>
        <mxCell id="tIcBD_fAVBuRJj0tbVpx-51" value="" style="edgeStyle=orthogonalEdgeStyle;rounded=0;orthogonalLoop=1;jettySize=auto;html=1;" edge="1" parent="1" source="tIcBD_fAVBuRJj0tbVpx-48" target="tIcBD_fAVBuRJj0tbVpx-50">
          <mxGeometry relative="1" as="geometry" />
        </mxCell>
        <mxCell id="tIcBD_fAVBuRJj0tbVpx-48" value="JSON Format Textual Response" style="whiteSpace=wrap;html=1;rounded=1;" vertex="1" parent="1">
          <mxGeometry x="200" y="278" width="120" height="60" as="geometry" />
        </mxCell>
        <mxCell id="tIcBD_fAVBuRJj0tbVpx-50" value="Markdown Output (Table /Summary, etc)" style="whiteSpace=wrap;html=1;rounded=1;" vertex="1" parent="1">
          <mxGeometry x="350" y="278" width="120" height="60" as="geometry" />
        </mxCell>
      </root>
    </mxGraphModel>
  </diagram>
</mxfile>
